<svg width="330" height="89" viewBox="0 0 330 89" fill="none" xmlns="http://www.w3.org/2000/svg">
<path d="M9.024 89.048C6.784 89.048 4.992 88.92 3.648 88.664C2.304 88.408 1.088 88.088 0 87.704L2.88 75.608C3.584 75.8 4.192 75.928 4.704 75.992C5.216 76.12 5.76 76.184 6.336 76.184C8.064 76.184 9.28 75.64 9.984 74.552C10.752 73.528 11.136 71.704 11.136 69.08V23H27.648V68.504C27.648 71.192 27.36 73.752 26.784 76.184C26.208 78.68 25.184 80.888 23.712 82.808C22.304 84.728 20.384 86.232 17.952 87.32C15.584 88.472 12.608 89.048 9.024 89.048Z" fill="#6F75F6"/>
<path d="M55.2998 72.152C52.6758 72.152 50.4038 71.704 48.4838 70.808C46.6278 69.848 45.0918 68.536 43.8758 66.872C42.6598 65.144 41.7638 63.096 41.1878 60.728C40.6118 58.296 40.3237 55.576 40.3237 52.568V23H56.8358V50.456C56.8358 53.528 57.2198 55.576 57.9878 56.6C58.7558 57.624 59.9718 58.136 61.6358 58.136C63.1718 58.136 64.4198 57.816 65.3798 57.176C66.4038 56.536 67.4598 55.448 68.5478 53.912V23H85.0598V71H71.6198L70.4678 64.664H70.0838C68.1638 66.968 66.0198 68.792 63.6518 70.136C61.3478 71.48 58.5638 72.152 55.2998 72.152Z" fill="#6F75F6"/>
<path d="M98.1277 71V23H111.568L112.72 28.76H113.104C115.024 26.904 117.2 25.304 119.632 23.96C122.128 22.552 125.008 21.848 128.272 21.848C133.52 21.848 137.328 23.64 139.696 27.224C142.064 30.744 143.248 35.48 143.248 41.432V71H126.736V43.544C126.736 40.472 126.352 38.424 125.584 37.4C124.816 36.376 123.6 35.864 121.936 35.864C120.4 35.864 119.12 36.184 118.096 36.824C117.072 37.464 115.92 38.36 114.64 39.512V71H98.1277Z" fill="#6F75F6"/>
<path d="M155.923 71V23H172.435V71H155.923Z" fill="#6F75F6"/>
<path d="M185.499 87.896V23H198.939L200.091 27.416H200.475C202.267 25.752 204.283 24.408 206.523 23.384C208.763 22.36 211.099 21.848 213.531 21.848C216.347 21.848 218.907 22.424 221.211 23.576C223.515 24.728 225.467 26.36 227.067 28.472C228.731 30.584 229.979 33.144 230.811 36.152C231.707 39.16 232.155 42.52 232.155 46.232C232.155 50.392 231.579 54.072 230.427 57.272C229.339 60.472 227.867 63.192 226.011 65.432C224.155 67.608 222.011 69.272 219.579 70.424C217.211 71.576 214.747 72.152 212.187 72.152C208.219 72.152 204.635 70.552 201.435 67.352L202.011 74.648V87.896H185.499ZM208.155 58.712C210.075 58.712 211.739 57.816 213.147 56.024C214.555 54.232 215.259 51.032 215.259 46.424C215.259 42.456 214.683 39.608 213.531 37.88C212.443 36.152 210.779 35.288 208.539 35.288C207.259 35.288 206.107 35.544 205.083 36.056C204.123 36.568 203.099 37.464 202.011 38.744V56.408C202.971 57.304 203.963 57.912 204.987 58.232C206.011 58.552 207.067 58.712 208.155 58.712Z" fill="#6F75F6"/>
<path d="M265.379 72.152C261.859 72.152 258.595 71.608 255.587 70.52C252.579 69.368 249.955 67.736 247.715 65.624C245.539 63.448 243.811 60.792 242.531 57.656C241.251 54.52 240.611 50.968 240.611 47C240.611 43.096 241.251 39.608 242.531 36.536C243.875 33.4 245.603 30.744 247.715 28.568C249.891 26.392 252.355 24.728 255.107 23.576C257.859 22.424 260.707 21.848 263.651 21.848C267.171 21.848 270.243 22.456 272.867 23.672C275.491 24.888 277.667 26.552 279.395 28.664C281.123 30.776 282.402 33.24 283.234 36.056C284.13 38.872 284.579 41.88 284.579 45.08C284.579 46.552 284.482 47.928 284.29 49.208C284.162 50.488 284.034 51.416 283.906 51.992H256.547C257.315 54.872 258.69 56.888 260.674 58.04C262.658 59.128 264.994 59.672 267.682 59.672C269.346 59.672 270.947 59.448 272.483 59C274.083 58.488 275.747 57.752 277.475 56.792L282.85 66.584C280.226 68.44 277.315 69.848 274.115 70.808C270.979 71.704 268.067 72.152 265.379 72.152ZM256.354 41.24H270.562C270.562 39.384 270.082 37.784 269.122 36.44C268.226 35.032 266.531 34.328 264.035 34.328C262.179 34.328 260.547 34.872 259.139 35.96C257.795 37.048 256.866 38.808 256.354 41.24Z" fill="#6F75F6"/>
<path d="M295.558 71V23H308.998L310.15 31.256H310.534C312.326 27.992 314.438 25.624 316.87 24.152C319.366 22.616 321.798 21.848 324.166 21.848C325.638 21.848 326.822 21.944 327.718 22.136C328.614 22.264 329.414 22.488 330.118 22.808L327.43 37.016C326.534 36.824 325.67 36.664 324.838 36.536C324.07 36.344 323.142 36.248 322.054 36.248C320.326 36.248 318.502 36.856 316.582 38.072C314.726 39.224 313.222 41.304 312.07 44.312V71H295.558Z" fill="#6F75F6"/>
<path d="M28.2454 9C28.2454 13.9706 24.2159 18 19.2454 18C14.2748 18 10.2454 13.9706 10.2454 9C10.2454 4.02944 14.2748 0 19.2454 0C24.2159 0 28.2454 4.02944 28.2454 9Z" fill="#6F75F6"/>
<path d="M173.245 9C173.245 13.9706 169.216 18 164.245 18C159.275 18 155.245 13.9706 155.245 9C155.245 4.02944 159.275 0 164.245 0C169.216 0 173.245 4.02944 173.245 9Z" fill="#6F75F6"/>
</svg>
