<svg width="602" height="159" viewBox="0 0 602 159" fill="none" xmlns="http://www.w3.org/2000/svg">
<g clip-path="url(#clip0)">
<path d="M20.375 157.92C13.975 157.92 9.22833 156.64 6.135 154.08C2.935 151.627 1.335 148.16 1.335 143.68C1.335 140.48 2.34833 137.813 4.375 135.68C6.295 133.547 8.90833 132.48 12.215 132.48C15.6283 132.48 18.135 133.44 19.735 135.36C21.4417 137.28 22.295 139.627 22.295 142.4C22.295 145.92 21.335 148.373 19.415 149.76V150.4C19.9483 150.507 20.375 150.56 20.695 150.56C21.1217 150.56 21.5483 150.56 21.975 150.56C24.7483 150.56 26.935 149.28 28.535 146.72C30.135 144.267 30.935 140.16 30.935 134.4V56.32L21.335 54.24V45.12L55.255 38.24V123.52C55.255 135.36 52.2683 144.053 46.295 149.6C40.3217 155.147 31.6817 157.92 20.375 157.92ZM42.935 29.12C38.455 29.12 34.935 27.8933 32.375 25.44C29.9217 22.9867 28.695 19.68 28.695 15.52V14.72C28.695 10.56 29.9217 7.25332 32.375 4.79999C34.935 2.34666 38.455 1.12 42.935 1.12C47.415 1.12 50.8817 2.34666 53.335 4.79999C55.895 7.25332 57.175 10.56 57.175 14.72V15.52C57.175 19.68 55.895 22.9867 53.335 25.44C50.8817 27.8933 47.415 29.12 42.935 29.12ZM109.057 125.92C98.8175 125.92 91.5642 123.36 87.2975 118.24C83.1375 113.013 81.0575 105.227 81.0575 94.88V56.32L71.4575 54.24V45.12L105.378 38.24V94.08C105.378 99.7333 106.338 103.787 108.258 106.24C110.284 108.587 113.644 109.76 118.338 109.76C120.151 109.76 121.964 109.547 123.778 109.12C125.591 108.587 127.191 107.84 128.578 106.88C129.964 105.813 131.084 104.533 131.938 103.04C132.791 101.44 133.218 99.52 133.218 97.28V56.32L123.618 54.24V45.12L157.538 38.24V107.84L167.138 109.92V119.04L133.698 125.92V110.08H132.898C131.404 114.347 128.738 118.08 124.898 121.28C121.058 124.373 115.778 125.92 109.057 125.92ZM177.451 113.44H187.051V56.32L177.451 54.24V45.12L210.891 38.24V54.08H211.691C213.185 49.8133 215.851 46.1333 219.691 43.04C223.531 39.84 228.811 38.24 235.531 38.24C245.771 38.24 252.971 40.8533 257.131 46.08C261.398 51.2 263.531 58.9333 263.531 69.28V113.44H273.131V124H230.411V113.44H239.211V70.08C239.211 64.4267 238.198 60.4267 236.171 58.08C234.251 55.6267 230.945 54.4 226.251 54.4C224.438 54.4 222.625 54.6667 220.811 55.2C218.998 55.6267 217.398 56.3733 216.011 57.44C214.625 58.4 213.505 59.68 212.651 61.28C211.798 62.7733 211.371 64.64 211.371 66.88V113.44H220.171V124H177.451V113.44ZM304.989 29.12C300.509 29.12 296.989 27.8933 294.429 25.44C291.975 22.9867 290.749 19.68 290.749 15.52V14.72C290.749 10.56 291.975 7.25332 294.429 4.79999C296.989 2.34666 300.509 1.12 304.989 1.12C309.469 1.12 312.935 2.34666 315.389 4.79999C317.949 7.25332 319.229 10.56 319.229 14.72V15.52C319.229 19.68 317.949 22.9867 315.389 25.44C312.935 27.8933 309.469 29.12 304.989 29.12ZM283.389 113.44H292.989V56.32L283.389 54.24V45.12L317.309 38.24V113.44H326.909V124H283.389V113.44ZM335.383 145.44H344.983V56.32L335.383 54.24V45.12L369.303 38.24V52.64H370.263C371.756 48.9067 374.369 45.6 378.102 42.72C381.836 39.7333 386.583 38.24 392.343 38.24C397.463 38.24 402.049 39.3067 406.103 41.44C410.263 43.4667 413.783 46.4 416.663 50.24C419.543 54.08 421.729 58.72 423.223 64.16C424.823 69.4933 425.623 75.4667 425.623 82.08C425.623 88.6933 424.823 94.72 423.223 100.16C421.729 105.493 419.543 110.08 416.663 113.92C413.783 117.76 410.263 120.747 406.103 122.88C402.049 124.907 397.463 125.92 392.343 125.92C386.263 125.92 381.409 124.533 377.783 121.76C374.156 118.88 371.596 115.573 370.103 111.84H369.303V145.44H382.103V156H335.383V145.44ZM384.183 111.2C388.663 111.2 392.396 109.653 395.383 106.56C398.369 103.467 399.863 98.9333 399.863 92.96V71.04C399.863 65.0667 398.369 60.5333 395.383 57.44C392.396 54.3467 388.663 52.8 384.183 52.8C379.916 52.8 376.343 54.1333 373.463 56.8C370.689 59.4667 369.303 63.04 369.303 67.52V96.48C369.303 100.96 370.689 104.533 373.463 107.2C376.343 109.867 379.916 111.2 384.183 111.2ZM480.134 125.92C473.52 125.92 467.654 124.853 462.534 122.72C457.52 120.48 453.254 117.44 449.734 113.6C446.32 109.653 443.707 105.013 441.894 99.68C440.08 94.24 439.174 88.32 439.174 81.92C439.174 75.2 440.08 69.12 441.894 63.68C443.814 58.24 446.48 53.6533 449.894 49.92C453.414 46.1867 457.574 43.3067 462.374 41.28C467.28 39.2533 472.72 38.24 478.694 38.24C484.667 38.24 490.054 39.1467 494.854 40.96C499.654 42.7733 503.707 45.3867 507.014 48.8C510.427 52.1067 513.04 56.16 514.854 60.96C516.667 65.76 517.574 71.0933 517.574 76.96V82.4H464.934V88.8C464.934 95.9467 466.8 101.333 470.534 104.96C474.267 108.587 479.227 110.4 485.414 110.4C491.174 110.4 495.814 109.12 499.334 106.56C502.854 103.893 505.36 100.693 506.854 96.96L515.654 102.24C514.694 104.907 513.307 107.627 511.494 110.4C509.68 113.173 507.334 115.733 504.454 118.08C501.574 120.32 498.107 122.187 494.054 123.68C490 125.173 485.36 125.92 480.134 125.92ZM464.934 72.32H492.454V70.08C492.454 62.4 491.227 57.0133 488.774 53.92C486.32 50.8267 482.96 49.28 478.694 49.28C474.427 49.28 471.067 50.8267 468.614 53.92C466.16 57.0133 464.934 62.4 464.934 70.08V72.32ZM529.639 113.44H539.239V56.32L529.639 54.24V45.12L563.079 38.24V54.08H563.719C565.212 49.6 567.612 45.8667 570.919 42.88C574.225 39.7867 578.545 38.24 583.879 38.24C589.105 38.24 593.212 39.68 596.199 42.56C599.185 45.3333 600.679 49.1733 600.679 54.08C600.679 58.3467 599.559 61.7067 597.319 64.16C595.079 66.6133 591.932 67.84 587.879 67.84C584.039 67.84 581.105 66.8267 579.079 64.8C577.052 62.6667 576.039 60.16 576.039 57.28C576.039 56 576.305 54.8267 576.839 53.76C577.372 52.6933 578.012 52 578.759 51.68L578.599 50.88C578.279 50.7733 577.799 50.72 577.159 50.72C575.452 50.72 573.799 51.2 572.199 52.16C570.599 53.12 569.159 54.3467 567.879 55.84C566.599 57.3333 565.532 58.9867 564.679 60.8C563.932 62.6133 563.559 64.3733 563.559 66.08V113.44H576.359V124H529.639V113.44Z" fill="#6F75F6"/>
</g>
<defs>
<clipPath id="clip0">
<rect width="602" height="159" fill="white"/>
</clipPath>
</defs>
</svg>
